PathFileType	4	(X/Y/Z)	C:\Users\italobelli\Desktop\GitHub\PTbot_officialCBL\Personal_Results\ABD21_noisy1.trc
DataRate	CameraRate	NumFrames	NumMarkers	Units	OrigDataRate	OrigDataStartFrame	OrigNumFrames
106.533333	106.533333	42	9	m	106.533333	601	800
Frame#	Time		gu		centelbow		EpL		centpxt8		centijc7		ij		ts		aa		ai
			X1	Y1	Z1	X2	Y2	Z2	X3	Y3	Z3	X4	Y4	Z4	X5	Y5	Z5	X6	Y6	Z6	X7	Y7	Z7	X8	Y8	Z8	X9	Y9	Z9

601	5.632	-0.10225	0.00068727	0.16048	-0.11967	-0.20789	0.28783	-0.12697	-0.18799	0.31184	-0.046816	-0.15316	-0.008669	-0.046816	0.031938	-0.008669	0	0	0	-0.13105	0.022926	0.032053	-0.13391	0.027807	0.15121	-0.14136	-0.089694	0.042183
602	5.6414	-0.10209	0.00013041	0.16055	-0.12007	-0.20992	0.28587	-0.12728	-0.19026	0.31009	-0.046816	-0.15316	-0.008669	-0.046816	0.031938	-0.008669	0	0	0	-0.13104	0.023071	0.03225	-0.13371	0.027537	0.15142	-0.14143	-0.08957	0.042035
603	5.6508	-0.10193	-0.00042442	0.16061	-0.12047	-0.21192	0.28389	-0.12759	-0.19252	0.30833	-0.046816	-0.15316	-0.008669	-0.046816	0.031938	-0.008669	0	0	0	-0.13103	0.023216	0.032448	-0.13351	0.027268	0.15164	-0.1415	-0.089444	0.041888
604	5.6602	-0.10176	-0.00097658	0.16067	-0.12087	-0.2139	0.2819	-0.1279	-0.19475	0.30654	-0.046816	-0.15316	-0.008669	-0.046816	0.031938	-0.008669	0	0	0	-0.13102	0.023361	0.032645	-0.1333	0.027001	0.15185	-0.14156	-0.089318	0.041742
605	5.6696	-0.10159	-0.0015254	0.16072	-0.12127	-0.21585	0.27989	-0.12821	-0.19695	0.30474	-0.046816	-0.15316	-0.008669	-0.046816	0.031938	-0.008669	0	0	0	-0.13101	0.023505	0.032843	-0.1331	0.026735	0.15206	-0.14163	-0.089191	0.041596
606	5.679	-0.10141	-0.0020703	0.16078	-0.12167	-0.21777	0.27787	-0.12852	-0.19913	0.30292	-0.046816	-0.15316	-0.008669	-0.046816	0.031938	-0.008669	0	0	0	-0.131	0.023649	0.033041	-0.13289	0.026471	0.15228	-0.14169	-0.089063	0.041451
607	5.6884	-0.10124	-0.0026105	0.16083	-0.12206	-0.21966	0.27584	-0.12882	-0.20128	0.30109	-0.046816	-0.15316	-0.008669	-0.046816	0.031938	-0.008669	0	0	0	-0.13099	0.023793	0.033238	-0.13268	0.02621	0.15248	-0.14176	-0.088935	0.041308
608	5.6977	-0.10105	-0.0031455	0.16088	-0.12245	-0.22153	0.2738	-0.12912	-0.20339	0.29924	-0.046816	-0.15316	-0.008669	-0.046816	0.031938	-0.008669	0	0	0	-0.13098	0.023935	0.033435	-0.13247	0.025951	0.15269	-0.14182	-0.088806	0.041166
609	5.7071	-0.10087	-0.0036746	0.16093	-0.12283	-0.22336	0.27176	-0.12942	-0.20548	0.2974	-0.046816	-0.15316	-0.008669	-0.046816	0.031938	-0.008669	0	0	0	-0.13097	0.024077	0.033631	-0.13226	0.025695	0.1529	-0.14188	-0.088678	0.041026
610	5.7165	-0.10069	-0.0041972	0.16098	-0.12322	-0.22516	0.26972	-0.12972	-0.20753	0.29554	-0.046816	-0.15316	-0.008669	-0.046816	0.031938	-0.008669	0	0	0	-0.13096	0.024217	0.033827	-0.13205	0.025443	0.1531	-0.14194	-0.08855	0.040888
611	5.7259	-0.1005	-0.0047125	0.16103	-0.1236	-0.22692	0.26768	-0.13001	-0.20955	0.29369	-0.046816	-0.15316	-0.008669	-0.046816	0.031938	-0.008669	0	0	0	-0.13095	0.024356	0.034022	-0.13185	0.025194	0.1533	-0.142	-0.088422	0.040752
612	5.7353	-0.10031	-0.00522	0.16108	-0.12397	-0.22865	0.26564	-0.1303	-0.21153	0.29184	-0.046816	-0.15316	-0.008669	-0.046816	0.031938	-0.008669	0	0	0	-0.13094	0.024493	0.034216	-0.13164	0.024949	0.1535	-0.14206	-0.088295	0.040619
613	5.7447	-0.10012	-0.0057191	0.16112	-0.12434	-0.23034	0.26361	-0.13058	-0.21347	0.28998	-0.046816	-0.15316	-0.008669	-0.046816	0.031938	-0.008669	0	0	0	-0.13093	0.024628	0.03441	-0.13143	0.024708	0.15369	-0.14212	-0.088169	0.040489
614	5.7541	-0.099933	-0.006209	0.16117	-0.1247	-0.232	0.26159	-0.13086	-0.21538	0.28814	-0.046816	-0.15316	-0.008669	-0.046816	0.031938	-0.008669	0	0	0	-0.13092	0.024761	0.034602	-0.13122	0.024472	0.15389	-0.14218	-0.088045	0.040362
615	5.7635	-0.099743	-0.0066891	0.16121	-0.12506	-0.23362	0.25958	-0.13113	-0.21724	0.2863	-0.046816	-0.15316	-0.008669	-0.046816	0.031938	-0.008669	0	0	0	-0.13091	0.024891	0.034793	-0.13102	0.024241	0.15408	-0.14223	-0.087922	0.040238
616	5.7728	-0.099554	-0.0071587	0.16125	-0.12542	-0.23519	0.25758	-0.1314	-0.21906	0.28448	-0.046816	-0.15316	-0.008669	-0.046816	0.031938	-0.008669	0	0	0	-0.1309	0.025019	0.034983	-0.13081	0.024016	0.15427	-0.14229	-0.0878	0.040117
617	5.7822	-0.099365	-0.0076174	0.16129	-0.12576	-0.23673	0.25561	-0.13167	-0.22084	0.28266	-0.046816	-0.15316	-0.008669	-0.046816	0.031938	-0.008669	0	0	0	-0.13089	0.025145	0.035172	-0.13061	0.023795	0.15446	-0.14234	-0.08768	0.040001
618	5.7916	-0.099178	-0.0080643	0.16133	-0.12611	-0.23822	0.25365	-0.13193	-0.22258	0.28087	-0.046816	-0.15316	-0.008669	-0.046816	0.031938	-0.008669	0	0	0	-0.13088	0.025268	0.035358	-0.13041	0.023581	0.15464	-0.1424	-0.087563	0.039889
619	5.801	-0.098992	-0.0084988	0.16137	-0.12644	-0.23967	0.25171	-0.13218	-0.22426	0.27909	-0.046816	-0.15316	-0.008669	-0.046816	0.031938	-0.008669	0	0	0	-0.13087	0.025387	0.035544	-0.13022	0.023373	0.15482	-0.14245	-0.087448	0.039781
620	5.8104	-0.098808	-0.0089203	0.16141	-0.12677	-0.24108	0.2498	-0.13243	-0.2259	0.27733	-0.046816	-0.15316	-0.008669	-0.046816	0.031938	-0.008669	0	0	0	-0.13086	0.025503	0.035727	-0.13002	0.023172	0.155	-0.1425	-0.087335	0.039677
621	5.8198	-0.098625	-0.0093282	0.16144	-0.12708	-0.24244	0.24791	-0.13267	-0.22749	0.27559	-0.046816	-0.15316	-0.008669	-0.046816	0.031938	-0.008669	0	0	0	-0.13085	0.025616	0.035909	-0.12983	0.022978	0.15518	-0.14255	-0.087225	0.039579
622	5.8292	-0.098446	-0.0097218	0.16148	-0.1274	-0.24375	0.24606	-0.1329	-0.22904	0.27389	-0.046816	-0.15316	-0.008669	-0.046816	0.031938	-0.008669	0	0	0	-0.13084	0.025725	0.036088	-0.12965	0.022791	0.15536	-0.1426	-0.087119	0.039485
623	5.8385	-0.098269	-0.0101	0.16151	-0.1277	-0.24502	0.24423	-0.13313	-0.23052	0.27221	-0.046816	-0.15316	-0.008669	-0.046816	0.031938	-0.008669	0	0	0	-0.13084	0.025831	0.036266	-0.12947	0.022612	0.15553	-0.14265	-0.087015	0.039397
624	5.8479	-0.098096	-0.010463	0.16155	-0.12799	-0.24623	0.24244	-0.13335	-0.23196	0.27056	-0.046816	-0.15316	-0.008669	-0.046816	0.031938	-0.008669	0	0	0	-0.13083	0.025932	0.036441	-0.12929	0.02244	0.15569	-0.1427	-0.086916	0.039315
625	5.8573	-0.097926	-0.01081	0.16158	-0.12828	-0.2474	0.24069	-0.13356	-0.23334	0.26894	-0.046816	-0.15316	-0.008669	-0.046816	0.031938	-0.008669	0	0	0	-0.13082	0.026029	0.036614	-0.12912	0.022277	0.15586	-0.14275	-0.086819	0.039238
626	5.8667	-0.09776	-0.01114	0.16162	-0.12855	-0.24851	0.23898	-0.13377	-0.23466	0.26736	-0.046816	-0.15316	-0.008669	-0.046816	0.031938	-0.008669	0	0	0	-0.13082	0.026121	0.036784	-0.12895	0.022122	0.15602	-0.1428	-0.086727	0.039168
627	5.8761	-0.097598	-0.011453	0.16165	-0.12882	-0.24958	0.23732	-0.13396	-0.23593	0.26582	-0.046816	-0.15316	-0.008669	-0.046816	0.031938	-0.008669	0	0	0	-0.13081	0.026209	0.036952	-0.12879	0.021977	0.15618	-0.14285	-0.086639	0.039104
628	5.8855	-0.097441	-0.011747	0.16168	-0.12908	-0.25058	0.2357	-0.13415	-0.23713	0.26433	-0.046816	-0.15316	-0.008669	-0.046816	0.031938	-0.008669	0	0	0	-0.13081	0.026292	0.037117	-0.12863	0.02184	0.15634	-0.14289	-0.086556	0.039046
629	5.8949	-0.09729	-0.012022	0.16172	-0.12932	-0.25153	0.23412	-0.13433	-0.23828	0.26287	-0.046816	-0.15316	-0.008669	-0.046816	0.031938	-0.008669	0	0	0	-0.13081	0.02637	0.037279	-0.12848	0.021714	0.15649	-0.14294	-0.086477	0.038996
630	5.9043	-0.097143	-0.012278	0.16175	-0.12956	-0.25243	0.2326	-0.13449	-0.23936	0.26146	-0.046816	-0.15316	-0.008669	-0.046816	0.031938	-0.008669	0	0	0	-0.1308	0.026442	0.037438	-0.12833	0.021597	0.15664	-0.14298	-0.086403	0.038952
631	5.9136	-0.097003	-0.012514	0.16178	-0.12978	-0.25327	0.23113	-0.13465	-0.24039	0.2601	-0.046816	-0.15316	-0.008669	-0.046816	0.031938	-0.008669	0	0	0	-0.1308	0.02651	0.037594	-0.1282	0.02149	0.15678	-0.14303	-0.086334	0.038916
632	5.923	-0.096869	-0.012729	0.16181	-0.12999	-0.25405	0.22971	-0.1348	-0.24134	0.2588	-0.046816	-0.15316	-0.008669	-0.046816	0.031938	-0.008669	0	0	0	-0.1308	0.026571	0.037747	-0.12807	0.021394	0.15692	-0.14307	-0.086271	0.038888
633	5.9324	-0.096741	-0.012923	0.16185	-0.13019	-0.25477	0.22836	-0.13494	-0.24223	0.25754	-0.046816	-0.15316	-0.008669	-0.046816	0.031938	-0.008669	0	0	0	-0.1308	0.026627	0.037897	-0.12794	0.021309	0.15706	-0.14311	-0.086213	0.038868
634	5.9418	-0.09662	-0.013094	0.16188	-0.13038	-0.25542	0.22706	-0.13507	-0.24305	0.25635	-0.046816	-0.15316	-0.008669	-0.046816	0.031938	-0.008669	0	0	0	-0.13081	0.026676	0.038043	-0.12783	0.021236	0.1572	-0.14315	-0.086161	0.038855
635	5.9512	-0.096507	-0.013243	0.16191	-0.13056	-0.25602	0.22583	-0.13519	-0.2438	0.25521	-0.046816	-0.15316	-0.008669	-0.046816	0.031938	-0.008669	0	0	0	-0.13081	0.02672	0.038185	-0.12772	0.021174	0.15733	-0.1432	-0.086115	0.038852
636	5.9606	-0.096401	-0.013369	0.16194	-0.13072	-0.25655	0.22467	-0.1353	-0.24448	0.25413	-0.046816	-0.15316	-0.008669	-0.046816	0.031938	-0.008669	0	0	0	-0.13081	0.026757	0.038324	-0.12762	0.021123	0.15745	-0.14324	-0.086075	0.038856
637	5.97	-0.096304	-0.013471	0.16197	-0.13087	-0.25702	0.22357	-0.13539	-0.24509	0.25312	-0.046816	-0.15316	-0.008669	-0.046816	0.031938	-0.008669	0	0	0	-0.13082	0.026787	0.038459	-0.12753	0.021085	0.15757	-0.14328	-0.086042	0.03887
638	5.9793	-0.096215	-0.013548	0.16201	-0.13101	-0.25742	0.22255	-0.13548	-0.24563	0.25218	-0.046816	-0.15316	-0.008669	-0.046816	0.031938	-0.008669	0	0	0	-0.13083	0.02681	0.038591	-0.12745	0.02106	0.15769	-0.14332	-0.086015	0.038893
639	5.9887	-0.096134	-0.013599	0.16204	-0.13113	-0.25776	0.2216	-0.13555	-0.24609	0.2513	-0.046816	-0.15316	-0.008669	-0.046816	0.031938	-0.008669	0	0	0	-0.13084	0.026827	0.038718	-0.12737	0.021047	0.15781	-0.14335	-0.085996	0.038925
640	5.9981	-0.096063	-0.013625	0.16207	-0.13124	-0.25802	0.22073	-0.13561	-0.24647	0.2505	-0.046816	-0.15316	-0.008669	-0.046816	0.031938	-0.008669	0	0	0	-0.13085	0.026836	0.038841	-0.12731	0.021048	0.15792	-0.14339	-0.085984	0.038967
641	6.0075	-0.095999	-0.013633	0.16211	-0.13134	-0.25824	0.21991	-0.13566	-0.2468	0.24975	-0.046816	-0.15316	-0.008669	-0.046816	0.031938	-0.008669	0	0	0	-0.13086	0.02684	0.038961	-0.12726	0.021059	0.15803	-0.14343	-0.085976	0.039018
642	6.0169	-0.095935	-0.01364	0.16214	-0.13143	-0.25846	0.2191	-0.13571	-0.24713	0.24901	-0.046816	-0.15316	-0.008669	-0.046816	0.031938	-0.008669	0	0	0	-0.13087	0.026844	0.039081	-0.1272	0.021071	0.15813	-0.14347	-0.085969	0.039076
